<svg xmlns="http://www.w3.org/2000/svg" viewBox="0 0 192.26 192.26"><defs><style>.a{fill:#fff;}</style></defs><path class="a" d="M36.79,107.91c0-.16-.3-.39-.39-.56.14-.22.32-.33.39-.49.12-.5.12-1,.23-1.55,0-.22,0-.38.07-.6a3.61,3.61,0,0,0,.41-2.1c0-.11.21-.38.23-.6s.2-.28.16-.39,0-.5.32-.88a6,6,0,0,0,.38-.82c.47-1.21.77-2.43,1.24-3.58-.27-2.11,5.13-9.28,1-8.23a2.47,2.47,0,0,1-.87.32c-4.29,1.82-3.93,1.54-5.48,5.39-.12.55-.29,1.05-.46,1.6a4.31,4.31,0,0,1-.19.72c-.88,1.81-1.2,3.63-2.53,5.49-.12.05-.12.11-.19.22-1.21,1.31-1,1.26-2.43,1.18-.22,0-.43-.12-.61,0-.63.1-.92-.23-.94-.62a6.21,6.21,0,0,1,.25-1.71c.79-2.54,1.82-5.18,2.89-7.76,1.3-2.53-1.35-.91-1.28-3a2.34,2.34,0,0,1,.06-1c.25-.66.32-1.27.55-1.87.16-.44.2-.77.05-.94.48-.77.9-1.48,1.38-2.3.75.34,1.63,0,2.76-.18a3,3,0,0,0,1.77-1.8,41.94,41.94,0,0,1,3.13-5.88c.84-1.48,2-3,3-4.54a.87.87,0,0,1,.95-.43l1.21.18c.54.18.55.51.33,1-.43.88-1,1.65-1.28,2.42s-.86,1.65-1.29,2.47c-3.82,5.14-.32,4.86,4,3.38.14-.27.32-.38.4-.6.69-1.6,1.24-2.53,2.1-4.18a7.89,7.89,0,0,0,.61-1.42,5.32,5.32,0,0,1,1.06-2,4.48,4.48,0,0,0,.61-1.43A5.16,5.16,0,0,1,51,69.4c.67-1,1.4-2,2.08-3l2.29,0a6,6,0,0,1,3,.82,1.64,1.64,0,0,1,.81,2.17,8.78,8.78,0,0,1-1,1.92,49.34,49.34,0,0,0-3.34,6.31c-1.17,2.42,1.77,1.63,3.26,1.33.29-.06.63-.11.7.23-1.08.15-2.28.4-3.25.61a5.44,5.44,0,0,0-1.46.48,2.51,2.51,0,0,0-1.23,1.53c.28,0,.72.06,1.05.07a1.41,1.41,0,0,0,.64-.16,8.57,8.57,0,0,1,2-.08,3.48,3.48,0,0,0,1.29-.09,10,10,0,0,1,1.35,0,6,6,0,0,1-.36-.78,3.29,3.29,0,0,1,.34-1h.4l.12-.11a5.27,5.27,0,0,1-.48-.67,2.07,2.07,0,0,1,1.44,1.57v-.11a.6.6,0,0,1-.46.16c-.49.88.18.88.9.9-.85.59-1.31.2-1.93.24.37.23.57.4.88.62-.4.11-.84,0-1.13.65.27.06.61.07,1,.13-.41.1-.7.26-.93.32a1.17,1.17,0,0,0-.78.43,4,4,0,0,1,.71.17,42.21,42.21,0,0,0-4.17,1.27c-.93.26-2,.52-2.95.84a2.32,2.32,0,0,0-1.61,1.36,12.86,12.86,0,0,0-1.12,3,17,17,0,0,1-.8,2.15c-.53,1.2-.72,2.42-1.19,3.57s-.7,2.21-1.16,3.31c0,.11-.19.21-.32.38s-.14.27-.09.33c.25.78-.25,1.71-.57,2.54,0,.16-.09.33-.1.44a4.33,4.33,0,0,1-.81,2.2c-.1.33-.64.65-1,1a2.87,2.87,0,0,0-.74.1,1.3,1.3,0,0,0-.46,0c-.8.65-1.62.47-2.42,1.13-.29.16-.13-.28-.37-.12s-.32.33-.38.33c-.22,0-.32-.12-.54-.18l-.49.44C37,108.47,37,108.41,36.79,107.91ZM33.15,84.12c-.68.15-.88.37-1.24,1.09.28,0,.61.12.94.12s.37.23.45.51c-.53.21-1,.2-1.54.75a13.81,13.81,0,0,0,1.77-.36c.42-.77.78-1.48,1.22-2.36A9.77,9.77,0,0,1,33.15,84.12Zm6.77-1.45c-.34,0-.63.16-.67.49.17,0,.27.06.33,0,.94-.38,1.71-.75,2.59-1.07a7,7,0,0,1,1.12,0s.13-.16.14-.22c-.46,0-.87.21-1.26.26C41.42,82.31,40.67,82.46,39.92,82.67Zm.6,1.12a3.84,3.84,0,0,0-1,.31A.9.9,0,0,0,40.52,83.79Zm3.66-.17a5.44,5.44,0,0,0-1.94.31,3.18,3.18,0,0,1-1.26.25,1.74,1.74,0,0,0-1.1.37,20.57,20.57,0,0,0,4.54-.65A3.22,3.22,0,0,1,44.18,83.62Zm-.16.89a1.23,1.23,0,0,0-1.43.25C43.22,84.66,43.53,84.88,44,84.51Z"/><path class="a" d="M61.31,85.93l.07-.06a1.76,1.76,0,0,1,.49-.38c.62-.1,2.13-1.07,2.65-.73.15.22.67.51.87.73a1.24,1.24,0,0,1,0,1.22c-.42.71-.89,1.37-1.43,2.25-.15.33-.3.6-.38.82-.28.49-.57,1.15-.91,1.65-.3.66.94-1.43.77-.88a1.14,1.14,0,0,1-.22.44,4,4,0,0,0-.71,1.87c-.07.56-.61,3.37-.61,3.87a1.52,1.52,0,0,0,.36.83A4.87,4.87,0,0,0,63,98c.26.22.55.12.89.07,4.82-1.59,3.22-2.23,6.22-5a9.9,9.9,0,0,0,1.65-2.24c0-.06,0-.06.2-.33.22.55-.48,1.32.28,1.49-1.41,2.09-2.59,5.11-4.61,6.19-.64.71-4.81,4-7.17,3-.81.26-1.45-.52-2.25-.87a4,4,0,0,1-1.48-1.24,6.07,6.07,0,0,1-.31-2.21,3.35,3.35,0,0,1,0-1c.25-.66.28-1.93.55-2.37a4.53,4.53,0,0,0,.27-.88c.12-.06,0-.33.43-.38.06,0,.14-.22.2-.28.32-.38.42-.71.74-1.09,0,0-1.3,1.14-.51,0,.57-1.1,1.72-2.3,2.14-3.07a.7.7,0,0,1,.14-.27c.21-.33.4-.55.33-.94a1.15,1.15,0,0,1,.26-.77A.31.31,0,0,0,61.31,85.93ZM67.13,80a1.56,1.56,0,0,0-.33.49.41.41,0,0,1-.15.27c-.18.17-.37.39-.63.66a2,2,0,0,1-.89.43c-.1-.06-.28,0-.41.16a.7.7,0,0,1-.78,0,.72.72,0,0,0-.44-.12,2.11,2.11,0,0,1-.61-.06c.07-.06.13-.17.2-.22a2.16,2.16,0,0,1,.23-.55,4.84,4.84,0,0,1,.47-.71c0-.11.19-.22.2-.28,0-.33.34-.6.55-.93l.39-.49a.68.68,0,0,1,.36-.22c.12,0,.23,0,.28,0s.1.11.22.06.18-.11.23-.06a3.05,3.05,0,0,0,.7.24,1.6,1.6,0,0,1,.8.84C67.33,79.71,67.26,79.88,67.13,80Z"/><path class="a" d="M88.83,92.87c-.1,1.39.41.89,2.51.6a5.38,5.38,0,0,0,2.84-1.35c.55-.48,1.1.13,1.35.41a7.44,7.44,0,0,1-1,1.43A12,12,0,0,1,89,95.48c-1.43.31-1.62,1-2.25,2.12l-.27.44a7.52,7.52,0,0,1-1,1.64,1.83,1.83,0,0,1-.37.33l-.63.66a4.3,4.3,0,0,1-1.08,1.09l-.44.43-.61.49a.81.81,0,0,1-.51,0,2.73,2.73,0,0,0-.52-.34,1.35,1.35,0,0,1,0-.49c0-.5-.17-1-.67-1a2,2,0,0,1-.5-.51,1.53,1.53,0,0,0-.6-.61,1.43,1.43,0,0,1,0-1.94,2.56,2.56,0,0,1,1-1,5.32,5.32,0,0,1,1.19-.65,14.14,14.14,0,0,1,2.1-.74,2.45,2.45,0,0,0,1-1.2,40.36,40.36,0,0,0,1.57-5l.22-1.88a.74.74,0,0,0,0-.33.27.27,0,0,0-.49-.18.47.47,0,0,0-.25.28,13.58,13.58,0,0,0-1.27,1.86c-1,1.59-2,3.29-3,4.82-.75,1.15-1.42,2.19-2.06,3.4-1.07,2-3.19,3.94-4.16,6.08a2.26,2.26,0,0,1-.72,1c-.3.11-.46.55-.5.88a4.29,4.29,0,0,1-.29,1.16,3.15,3.15,0,0,1-.4.55,5.62,5.62,0,0,0-.72.93,15.1,15.1,0,0,0-1.6,4.23,13,13,0,0,1-.45,2,1.38,1.38,0,0,1-.79,1,1.75,1.75,0,0,0-.76.82c-.06.05-.26.27-.31.27s-.27.38-.4.55h0c-.92.16-1.4-.52-1.62-1.57a13.1,13.1,0,0,1-.12-3.32A47.42,47.42,0,0,1,68,103.9c.23-1.05.58-2.15.86-3.14a39.63,39.63,0,0,1,1.63-5c.89-2.42,1.83-4.79,2.82-7.09.23-.56.51-1,.75-1.71.86-1.65,1.62-3.41,2.48-5.11.37-.82.93-1.75,1.41-2.58a.62.62,0,0,1,.84,0l1.24.84,0,.06a6.19,6.19,0,0,1,1.07,3.89,7.69,7.69,0,0,1-.47,2.7c-.49,1.33-1,2.75-1.7,4.13-.43.88-.89,2-1.34,3-1.24,3.08.59,2.72,1.08,1.78.22-.44,1.18-1.53,1.42-2.08l2.26-3.73a7.08,7.08,0,0,1,1.21-1.75c.44-.43.89-1,1.39-1.42a2.21,2.21,0,0,1,1.3-.58h.94c.52-.1.92.34,1.32.74A1.35,1.35,0,0,1,89,87.9a11.83,11.83,0,0,1,0,1.32l0,1.61Zm-7,4.27a1.37,1.37,0,0,0-.7,1.21c0,.27.17.5.34.5s.29-.11.41-.22a2.3,2.3,0,0,0,.8-.65c.71-.82,1-1.7.83-1.37C82.84,96.88,82.35,96.76,81.81,97.14Z"/><path class="a" d="M95.1,109.68c-.22,0-.22,0-.76.32,0,0,0-.11,0-.17s-.11,0-.15-.16c-.13.1-.29.1-.37.27a3.08,3.08,0,0,1-.94.37c-.11,0-.11,0-.38-.06.07-.11.08-.17.14-.28-.16,0-.29.11-.45.11a.35.35,0,0,1-.3.16c-.48.27-.69.16-.87-.29a1.88,1.88,0,0,0-.29-.89,3.54,3.54,0,0,1-.32-1.61,3.12,3.12,0,0,1,.27-.88,6.58,6.58,0,0,1,1.17-2,21.55,21.55,0,0,1,3.28-3.27c2.34-1.91,2.07-2.46,1.59-4.13A12,12,0,0,0,95.65,94c0-.22-.18-.39-.21-.61a20.15,20.15,0,0,1-.92-5.77c.13-.1.08-.22.22-.44a1.49,1.49,0,0,1,.39-1c.08-.16.28-.49.15-.77.19-.27.29-.66.49-.93a7.83,7.83,0,0,0,.42-.77,2.87,2.87,0,0,1,.4-.49l.61-1c.28-.44.65-.76.91-1.15.07-.11.13-.11.25-.16a.85.85,0,0,0,.37-.38c.2-.22.32-.33.42-.22a2.75,2.75,0,0,1,.93.68.16.16,0,0,1,.11.06c.47.23,1.14,2.29,1.11,3a.57.57,0,0,0,.06.45,3,3,0,0,1-.22,1,8,8,0,0,1-.61,1.43c-.14.22-.21.38-.44.44a1.66,1.66,0,0,0-.51.54c-.07.17-.32.33-.29.61a.32.32,0,0,1-.08.16,6.31,6.31,0,0,0-.54.88,3.47,3.47,0,0,0-.28,2,2.14,2.14,0,0,0,.47.73c.66.62,1,2.73,1.58,3.35.26.22.19.83.39,1.05.36,1.22,2.32-.24,3.81-.6.91-.6,1.82-1.19,2.73-1.84.66-.44,1.33-.92,1.95-1.41a11.12,11.12,0,0,0,1.18-1.09c.31-.27.63-.6,1-.93a5.11,5.11,0,0,1,.16.56,1.09,1.09,0,0,1-.17,1c-.07.17-.2.27-.22.44a3.93,3.93,0,0,1-.62,1c-.32.33-.53.77-.85,1.1a9,9,0,0,0-.8.65l-1.29,1-.24.22a19.9,19.9,0,0,0-1.94,1.3,7.78,7.78,0,0,1-.67.49c-1.21.81-2.89.79-3.06,2.28a3.09,3.09,0,0,1-.36,2.2c0,.17-.08.28,0,.45-.13.16-.08.22-.08.22-.26.32-.22.93-.36,1.26a.8.8,0,0,1-.31.27,1.86,1.86,0,0,1-.19.11,8.06,8.06,0,0,0-.78,1,18.56,18.56,0,0,1-2.53,2.56,4.6,4.6,0,0,1-.51.55,3,3,0,0,1-1.14.65c-.06.05-.11.05-.12.11a2,2,0,0,1-1.13.59c-.12,0-.13.11-.24.16C94.34,110.5,94.72,110.12,95.1,109.68Zm-1.66-4.62a1.78,1.78,0,0,0-.93.82,2.14,2.14,0,0,1-.64.71,2.54,2.54,0,0,0-.64.71,4.53,4.53,0,0,1-.26.88.61.61,0,0,0,0,.72c.19.28.39.5.58.78a.46.46,0,0,0,.62,0c.24-.17.43-.33.73-.55s.5-.49.75-.71a4.61,4.61,0,0,0,1.4-1.47,1.78,1.78,0,0,0,.27-.38,7.3,7.3,0,0,0,.83-1.43,16.45,16.45,0,0,0,.63-1.59s.07-.11.07-.17c.2-1.76-2.1.75-2.84,1.4A1.35,1.35,0,0,1,93.44,105.06Z"/><path class="a" d="M128.14,91.59c0,.33-.21.33-.18.6a11,11,0,0,1-.9,2c-.44.88-.93,1.75-1.36,2.63-.62,1-1.22,1.87-1.83,2.8-.27.38-3.27,3.66-3.57,3.87-.78.49-2.17,1.9-2.89,2.34a14.31,14.31,0,0,1-2.62.9,7.41,7.41,0,0,1-2.17-.09c-1.16-.18-2.7-1.92-3.13-3a6.56,6.56,0,0,1-.61-1.5,13.26,13.26,0,0,1-.14-2.71c.52-4.64,1.16-5.3,3-9.75.16-.38.25-.72.41-1.1a6.85,6.85,0,0,1,.46-1.1c.23-.61.47-1.21.7-1.76.41-1.21,2.1-3.29.79-3.58-.38-.07-.72,0-1-.3s-.63-.39-.94-.62a.77.77,0,0,1-.28-.5,1.41,1.41,0,0,1,.29-.11l2.35-.46a16.34,16.34,0,0,1,1.64-.2.84.84,0,0,0,.61-.43,10.35,10.35,0,0,0,.71-1.32c.68-1,1.19-2.14,1.92-3.12a12.89,12.89,0,0,1,2.1-2.3,4.38,4.38,0,0,1,.44-.43,1,1,0,0,1,.75-.21c.33.12.68,0,1.07,0,.06,0,.06,0,.12,0,.8-.16,1,.18,1.2.79a3.71,3.71,0,0,1,.19,1.77,3.75,3.75,0,0,0,0,.89,1.78,1.78,0,0,1-.09.77c-.09.28-.17.55-.27.88l-.48,1.32a1.24,1.24,0,0,1-.11.45.9.9,0,0,0,.55.11l2.08-.13,2.91,0a9.11,9.11,0,0,1,1,.18,2.87,2.87,0,0,1-.26.33,1.65,1.65,0,0,1-.42.27c-.41.16-.88.38-1.29.54,0,0-.07,0-.07,0a11.65,11.65,0,0,1-2,.25,4.09,4.09,0,0,0-1.19.15,4.15,4.15,0,0,1-.75.15l-1.3.15a.81.81,0,0,0-.5.43c-.06.06-.07.11-.13.17-.88,1.86-2,3.62-2.91,5.43-.13.22-.27.44-.34.6a9.94,9.94,0,0,0-.86,1.65,7.51,7.51,0,0,1-.89,1.42c-.27.39-.27.89-.59,1.27a26,26,0,0,0-2.1,7.66,9.46,9.46,0,0,0,.28,2.55,2.71,2.71,0,0,0,.42.67c.06,0,.11.06.22.06a4.42,4.42,0,0,0,2-.25c.36-.22,2.19-1.51,2.55-1.79A26.8,26.8,0,0,0,124.57,97c.61-.94,1-2.15,1.62-3,.29-.55,1-1.76,1.33-2.36C127.8,91.64,128.21,91.42,128.14,91.59Zm-7.73-8.31c.71-1.37,1-2.47-1-1.34-.82,1.81-1.19,3.08-1.88,4.78-1.75,4.57.43,1.17,1.44-.86A23.93,23.93,0,0,1,120.41,83.28ZM122.86,77c.08-.22.16-.5.25-.78.11-.44.27-.88.37-1.32a6.21,6.21,0,0,0,.12-1.49c0-.22-.19-.28-.32-.17a1.35,1.35,0,0,0-.56.55,6.32,6.32,0,0,0-.72,1.42c-.08.17-.21.33-.28.5a7.41,7.41,0,0,0-.42.71c-.17.55-.35,1.15-.59,1.76-.39,1.43,1.17,1.51,1.62.52C122.5,78.11,122.68,77.56,122.86,77Z"/><path class="a" d="M133.2,91.83a.39.39,0,0,1-.25.27c-.06.06-.18.11-.2.28s-.14.27-.32.32-.12.11-.21.44c.11,0,.16,0,.21.06v.06H132a1.42,1.42,0,0,0,.1-.44H132l-.3,1.16c.11,0,.16.11.21.11a6.7,6.7,0,0,1-.07,1.1,2.56,2.56,0,0,0,.11,1c.15.23.46,1.45.6,1.67.69.79,1.53,1.8,2.42,1.86a15.38,15.38,0,0,0,2.21-.24,13.35,13.35,0,0,0,4.08-2c1-.71,2-1.52,3.05-2.28l.19-.17c.38-.38.75-.7,1.13-1.09a15.42,15.42,0,0,0,1.89-1.9,1.51,1.51,0,0,1,.75-.66,6.55,6.55,0,0,1-.6,1.38,1.64,1.64,0,0,1-.33.44,6.45,6.45,0,0,0-1,1.14c-.19.22-.44.44-.63.66a2,2,0,0,0-.27.33l.47-.16c-.09.33-.38.38-.47.66.05,0,.05.11.15.16a3.59,3.59,0,0,1-.63.66,9.32,9.32,0,0,0-1.06.92A13.76,13.76,0,0,1,142.18,99a7.37,7.37,0,0,1-.85.6c-.24.16-.48.27-.72.43a9.76,9.76,0,0,0-1.07.54,6.09,6.09,0,0,1-1.86.69l-.53.16a8.72,8.72,0,0,1-2.05.35,19.72,19.72,0,0,1-4.72-.84c-1.86-.81-2.15-1.75-2.95-2.54a2.45,2.45,0,0,1-.65-1.17,7.38,7.38,0,0,1-.13-2.32,12.42,12.42,0,0,1,1.73-4.9,1.07,1.07,0,0,0,.2-.83,1.11,1.11,0,0,0-.62.6,9.6,9.6,0,0,1-.84,1.42,3.19,3.19,0,0,1,.53-1.2,20.44,20.44,0,0,1,1.88-2.8,17.57,17.57,0,0,1,2.36-2.51,14.62,14.62,0,0,1,2.75-2.06c.23-.1.41-.16.59-.26s.57-.16.71.12.38.11.48.22.18.34.28.45c.53.29,2.59.87,3.05,1.21a1.1,1.1,0,0,1,.33.56,4.47,4.47,0,0,0,.74,1.39,1.29,1.29,0,0,1,.17.5,4.94,4.94,0,0,1-.23,2,6.65,6.65,0,0,1-1.08,2.14,8.06,8.06,0,0,0-.74,1.15,5.72,5.72,0,0,1-.69,1.1,1.81,1.81,0,0,1-1.1.81,1.88,1.88,0,0,1-1.08.15c-.16,0-.33,0-.42-.22a0,0,0,0,0-.05-.06c-.45,0-.67-.45-1-.62a.52.52,0,0,1-.08-.28c.14-.22,0-.33,0-.5a12.7,12.7,0,0,0-.57-1.39c0-.17-.2-.23-.38-.06S133.24,91.5,133.2,91.83Zm-5.86,4.89c0,.17.08.28.11.45s.14.27,0,.49c0,0-.1,0-.1-.11a6.75,6.75,0,0,1-.27-2c0-.06,0-.12,0-.17a10,10,0,0,1,.5-2.43,1.59,1.59,0,0,0,.17-.49c0-.11,0-.17,0-.39a4.79,4.79,0,0,0-.42.77c-.08.27-.17.5-.25.77a6.07,6.07,0,0,0,0,3.93,4.06,4.06,0,0,0,.38.61.81.81,0,0,0,.37.23s.05,0,.16,0a5.43,5.43,0,0,1-.36-.78c-.13-.33-.09-.66-.23-.94A.22.22,0,0,0,127.34,96.72Zm.4-3.53a5.76,5.76,0,0,0-.4,2.54s0,0,.1.11c.12-.61.24-1.16.36-1.71a1.86,1.86,0,0,0,.07-1.11C127.8,93.08,127.74,93.13,127.74,93.19Zm3.8,1.44a.45.45,0,0,1,0,.11A.45.45,0,0,0,131.54,94.63Zm3.73-5.76c-.13.17-.32.39-.46.61-.27.38-.24.66,0,.83a1.45,1.45,0,0,1,.46.39c.29.39.74.34,1.2.3a2,2,0,0,0,1-.88c.5-.93.74-1.09,1.18-2,1.13-2.09-.71-1.62-1.62-1A10.77,10.77,0,0,0,135.27,88.87Z"/><path class="a" d="M154.28,93.92a60.23,60.23,0,0,1,3.18-5.37c.39-.5.78-1,1.13-1.54a11.55,11.55,0,0,0,1-1.36,1.43,1.43,0,0,1,1-.65c.39,0,.74,0,1.07,0,.67,0,1,.51,1.26,1.23,0,.06,0,.11,0,.23,0,.71.12,1.49.14,2.27a13.76,13.76,0,0,1-.2,2.21,12.79,12.79,0,0,1-.16,1.49c.26.17.18.39.24.33s.49.06.62,0,.19-.17.25-.28a3.48,3.48,0,0,0,.74-.59c.2-.28.37-.27.56,0a.54.54,0,0,1-.27.43,1.35,1.35,0,0,0-.2.28.71.71,0,0,1-.38.38l-.19.16c-.06.06-.18.11-.18.17s-.12.05-.18.1a.87.87,0,0,1-.65.27,1.31,1.31,0,0,0-.53.21c-.18.11-.34.11-.44,0a8.37,8.37,0,0,0-1.13-.46,2,2,0,0,1-1.27-1.57,6.52,6.52,0,0,1,.19-3.15c.16-.5.21-.94.32-1.38s.19-.66.28-1a.76.76,0,0,0,.12-.61c-.05,0-.16-.06-.17,0a1.41,1.41,0,0,0-.25.28c-.28.44-.61.87-.94,1.36a3,3,0,0,0-.45,1c0,.22-.16.38-.23.54a18.6,18.6,0,0,0-1.61,2.86c-.36.77-.83,1.42-1.25,2.19-.64,1.15-1.37,2.19-1.9,3.4-.15.39-.43.83-.64,1.26a23.91,23.91,0,0,1-2.22,3.24c0,.11-.18.16-.31.27a2,2,0,0,1-2.42.63c-.12.11-.22,0-.32-.12-.87-.23-1.22-1.07-1.32-2.18a16.26,16.26,0,0,1,.16-2.87c.22-1.44.43-2.87.71-4.31a17.3,17.3,0,0,1,.84-3,15.52,15.52,0,0,1,1.4-4,8.42,8.42,0,0,1,.51-1c.5-1,.94-1.86,1.48-2.74.31-.72.54-.82,1.09-.7a6.38,6.38,0,0,1,1.37.24,1.81,1.81,0,0,1,1,.57,10.51,10.51,0,0,0,1.3,1.9,2.81,2.81,0,0,1,0,2.6c-.41,1.1-.43.27-.84,1.42-1,2.31-2.53,4.11-3.38,6.2C151.09,97.41,154,94.85,154.28,93.92Z"/><path class="a" d="M48.72,121.08a2.64,2.64,0,0,1,1.87.66,2.38,2.38,0,0,1,0,3.43,2.69,2.69,0,0,1-1.87.66H47.05v-4.75ZM48.21,125h.51a1.32,1.32,0,0,0,1-.41,1.49,1.49,0,0,0,.38-1.09,1.51,1.51,0,0,0-.38-1.09,1.35,1.35,0,0,0-1-.4h-.51Z"/><path class="a" d="M58,121.06v.88H56.32v1h1.52v.88H56.32V125H58v.88H55.16v-4.77Z"/><path class="a" d="M63.75,121.92a.51.51,0,0,0-.35.12.37.37,0,0,0-.14.33.48.48,0,0,0,.13.35.77.77,0,0,0,.33.2l.46.14a4.91,4.91,0,0,1,.51.15,2.12,2.12,0,0,1,.45.23,1,1,0,0,1,.34.38,1.24,1.24,0,0,1,.13.6,1.35,1.35,0,0,1-.49,1,1.89,1.89,0,0,1-1.3.43,2,2,0,0,1-1.29-.39A1.29,1.29,0,0,1,62,124.4h1.23a.53.53,0,0,0,.58.56.57.57,0,0,0,.4-.13.45.45,0,0,0,.14-.33.42.42,0,0,0-.13-.33.89.89,0,0,0-.34-.21c-.13,0-.29-.09-.46-.14a3.22,3.22,0,0,1-.5-.16,2.8,2.8,0,0,1-.46-.22.94.94,0,0,1-.33-.38,1.22,1.22,0,0,1-.13-.59,1.28,1.28,0,0,1,.49-1.06,1.93,1.93,0,0,1,1.27-.4,2,2,0,0,1,1.24.35,1.3,1.3,0,0,1,.49,1.1H64.27a.59.59,0,0,0-.16-.4A.51.51,0,0,0,63.75,121.92Z"/><path class="a" d="M69.63,125.83v-4.75h1.16v4.75Z"/><path class="a" d="M75.34,125.18a2.28,2.28,0,0,1-.71-1.74,2.32,2.32,0,0,1,.71-1.75,2.56,2.56,0,0,1,3.14-.26,2.25,2.25,0,0,1,.86,1.16H78a.93.93,0,0,0-.87-.52,1.21,1.21,0,0,0-.94.37,1.41,1.41,0,0,0-.34,1,1.43,1.43,0,0,0,.34,1,1.21,1.21,0,0,0,.92.37,1,1,0,0,0,.67-.21,1,1,0,0,0,.35-.55H76.75v-.88h2.59v.88a2.39,2.39,0,0,1-.71,1.21,2.21,2.21,0,0,1-.69.44,2.14,2.14,0,0,1-.87.17A2.38,2.38,0,0,1,75.34,125.18Z"/><path class="a" d="M86.28,121.06h1.16v4.77H86.28l-1.93-3v3H83.19v-4.77h1.16l1.93,3Z"/><path class="a" d="M98.31,121.92A.51.51,0,0,0,98,122a.37.37,0,0,0-.14.33.48.48,0,0,0,.13.35.77.77,0,0,0,.33.2l.46.14a4.91,4.91,0,0,1,.51.15,2.12,2.12,0,0,1,.45.23,1,1,0,0,1,.34.38,1.24,1.24,0,0,1,.13.6,1.35,1.35,0,0,1-.49,1,1.89,1.89,0,0,1-1.3.43,2,2,0,0,1-1.29-.39,1.29,1.29,0,0,1-.49-1.09h1.23a.53.53,0,0,0,.58.56.57.57,0,0,0,.4-.13.45.45,0,0,0,.14-.33.42.42,0,0,0-.13-.33.89.89,0,0,0-.34-.21c-.13,0-.29-.09-.46-.14a3.22,3.22,0,0,1-.5-.16,2.8,2.8,0,0,1-.46-.22.94.94,0,0,1-.33-.38,1.22,1.22,0,0,1-.13-.59,1.28,1.28,0,0,1,.49-1.06,1.93,1.93,0,0,1,1.27-.4,2,2,0,0,1,1.24.35,1.3,1.3,0,0,1,.49,1.1H98.83a.59.59,0,0,0-.16-.4A.49.49,0,0,0,98.31,121.92Z"/><path class="a" d="M103.86,122v-.88h3.76V122h-1.3v3.87h-1.16V122Z"/><path class="a" d="M111.39,123.91v-2.83h1.16v2.83a.93.93,0,0,0,.21.66,1,1,0,0,0,1.24,0,.94.94,0,0,0,.22-.66v-2.83h1.16v2.83a1.94,1.94,0,0,1-.3,1.09,1.75,1.75,0,0,1-.74.67,2.33,2.33,0,0,1-1,.21,2,2,0,0,1-1.4-.52A1.84,1.84,0,0,1,111.39,123.91Z"/><path class="a" d="M121.14,121.08a2.64,2.64,0,0,1,1.87.66,2.38,2.38,0,0,1,0,3.43,2.69,2.69,0,0,1-1.87.66h-1.67v-4.75Zm-.51,3.87h.51a1.34,1.34,0,0,0,1-.41,1.53,1.53,0,0,0,.37-1.09,1.55,1.55,0,0,0-.37-1.09,1.37,1.37,0,0,0-1-.4h-.51Z"/><path class="a" d="M127.58,125.83v-4.75h1.16v4.75Z"/><path class="a" d="M133.29,125.19a2.51,2.51,0,0,1,0-3.5,2.54,2.54,0,0,1,3.46,0,2.54,2.54,0,0,1,0,3.5,2.51,2.51,0,0,1-3.46,0Zm2.64-.75a1.43,1.43,0,0,0,.34-1,1.41,1.41,0,0,0-.34-1,1.17,1.17,0,0,0-.91-.37,1.19,1.19,0,0,0-.92.37,1.41,1.41,0,0,0-.34,1,1.43,1.43,0,0,0,.34,1,1.23,1.23,0,0,0,.92.37A1.2,1.2,0,0,0,135.93,124.44Z"/></svg>