<svg xmlns="http://www.w3.org/2000/svg" viewBox="0 0 192.26 192.26"><defs><style>.a{fill:#fff;}</style></defs><path class="a" d="M34.16,86.74v6H30.4V77.3h6.09a5.94,5.94,0,0,1,4.18,1.39A4.38,4.38,0,0,1,42.17,82a4.75,4.75,0,0,1-.82,2.62,4.43,4.43,0,0,1-2.66,1.8l3.79,6.29h-4.4l-3.48-6Zm0-6.58v3.72h2.33A1.72,1.72,0,0,0,38.34,82a1.89,1.89,0,0,0-.5-1.35,1.8,1.8,0,0,0-1.35-.53Z"/><path class="a" d="M60.53,77.26v2.86H55v3.32h4.92V86.3H55v3.59h5.58v2.85H51.19V77.26Z"/><path class="a" d="M69.86,92.74V77.3h10v2.86H73.62v3.33h4.71v2.85H73.62v6.4Z"/><path class="a" d="M92.36,86.74v6H88.6V77.3h6.09a5.94,5.94,0,0,1,4.18,1.39,4.38,4.38,0,0,1,1.5,3.34,4.83,4.83,0,0,1-.82,2.62,4.43,4.43,0,0,1-2.66,1.8l3.78,6.29h-4.4l-3.47-6Zm0-6.58v3.72h2.33A1.74,1.74,0,0,0,96.54,82,1.86,1.86,0,0,0,96,80.69a1.76,1.76,0,0,0-1.34-.53Z"/><path class="a" d="M118.73,77.26v2.86h-5.59v3.32h4.93V86.3h-4.93v3.59h5.59v2.85h-9.35V77.26Z"/><path class="a" d="M133.29,80.05a1.73,1.73,0,0,0-1.15.38,1.33,1.33,0,0,0-.45,1.08,1.6,1.6,0,0,0,.41,1.13,3,3,0,0,0,1.09.66c.45.15.95.3,1.5.44s1.09.31,1.64.5a7.58,7.58,0,0,1,1.48.74,3.23,3.23,0,0,1,1.09,1.24,4.13,4.13,0,0,1,.42,1.93,4.29,4.29,0,0,1-1.6,3.35,6.14,6.14,0,0,1-4.2,1.4,6.61,6.61,0,0,1-4.2-1.26,4.26,4.26,0,0,1-1.59-3.56h4a1.74,1.74,0,0,0,1.89,1.85,1.8,1.8,0,0,0,1.28-.43,1.42,1.42,0,0,0,.46-1.09,1.46,1.46,0,0,0-.42-1.08,3.14,3.14,0,0,0-1.09-.66c-.44-.16-.94-.31-1.49-.45a16.33,16.33,0,0,1-1.64-.51,9,9,0,0,1-1.49-.74,3.17,3.17,0,0,1-1.08-1.23,4.06,4.06,0,0,1-.42-1.9,4.23,4.23,0,0,1,1.6-3.46,6.36,6.36,0,0,1,4.11-1.3,6.61,6.61,0,0,1,4,1.14,4.29,4.29,0,0,1,1.61,3.57H135a2.07,2.07,0,0,0-.54-1.29A1.58,1.58,0,0,0,133.29,80.05Z"/><path class="a" d="M158.1,77.3h3.76V92.74H158.1v-6.4h-6v6.4h-3.76V77.3h3.76v6.19h6Z"/><path class="a" d="M60.72,109v6.11H59.23v-3.45l-1.42,3.45h-1.1l-1.42-3.45v3.45H53.8V109h1.71l1.75,4.21L59,109Z"/><path class="a" d="M71,115.13l-.34-1H68.49l-.34,1H66.56L68.69,109H70.5l2.11,6.13ZM68.86,113h1.45l-.73-2.18Z"/><path class="a" d="M79,114.3a3.22,3.22,0,0,1,0-4.49,3.27,3.27,0,0,1,4-.34,2.82,2.82,0,0,1,1.11,1.5H82.37a1.16,1.16,0,0,0-1.11-.67,1.54,1.54,0,0,0-1.2.48,1.78,1.78,0,0,0-.44,1.28,1.75,1.75,0,0,0,.44,1.27,1.51,1.51,0,0,0,1.18.48,1.25,1.25,0,0,0,1.31-1H80.83v-1.13h3.32v1.13a3,3,0,0,1-.91,1.56,3,3,0,0,1-2,.78A3.12,3.12,0,0,1,79,114.3Z"/><path class="a" d="M94.1,115.13l-.34-1H91.57l-.34,1H89.65L91.77,109h1.81l2.12,6.13ZM92,113h1.44l-.72-2.18Z"/><path class="a" d="M105.64,109v1.13L103,114h2.6v1.13h-4.31V114l2.6-3.85h-2.6V109Z"/><path class="a" d="M111.85,115.13V109h1.48v6.11Z"/><path class="a" d="M123.73,109h1.49v6.13h-1.49l-2.49-3.86v3.86h-1.48V109h1.48l2.49,3.86Z"/><path class="a" d="M135.34,109v1.13h-2.21v1.32h2v1.13h-2V114h2.21v1.13h-3.7V109Z"/></svg>