<svg xmlns="http://www.w3.org/2000/svg" viewBox="0 0 192.26 192.26"><defs><style>.a{fill:#fff;}</style></defs><path class="a" d="M25.43,105.46V72.91h7.93v32.55Z"/><path class="a" d="M41.55,102.17A13.08,13.08,0,0,1,38,92.52a13,13,0,0,1,3.6-9.62,12.59,12.59,0,0,1,9.3-3.59,13.5,13.5,0,0,1,8,2.34,11.17,11.17,0,0,1,4.36,6.7H54.65A3.78,3.78,0,0,0,51,86a4.25,4.25,0,0,0-3.76,1.79,9.61,9.61,0,0,0,0,9.41A4.1,4.1,0,0,0,50.85,99a4.42,4.42,0,0,0,2.31-.51,4.29,4.29,0,0,0,1.49-1.81h8.58a11.5,11.5,0,0,1-4.41,6.63,13,13,0,0,1-8,2.46A12.53,12.53,0,0,1,41.55,102.17Z"/><path class="a" d="M69.28,102.13a12.61,12.61,0,0,1-3.92-9.65,12.41,12.41,0,0,1,3.9-9.58,14.72,14.72,0,0,1,19.27,0,12.46,12.46,0,0,1,3.87,9.58,12.71,12.71,0,0,1-3.85,9.65,13.4,13.4,0,0,1-9.6,3.66A13.63,13.63,0,0,1,69.28,102.13Zm13.47-4.78a6.77,6.77,0,0,0,1.58-4.83,6.57,6.57,0,0,0-1.62-4.8,5.27,5.27,0,0,0-3.85-1.64A5.18,5.18,0,0,0,75,87.72a7.95,7.95,0,0,0,0,9.63A5.26,5.26,0,0,0,79,99,5.05,5.05,0,0,0,82.75,97.35Z"/><path class="a" d="M105,79.59v3.8c1.63-2.72,4.25-4.08,7.83-4.08a9.4,9.4,0,0,1,7.22,3,11.39,11.39,0,0,1,2.76,8.06v15.12h-7.89v-14a5.34,5.34,0,0,0-1.32-3.87,5.52,5.52,0,0,0-7.28,0A5.34,5.34,0,0,0,105,91.41v14H97V79.59Z"/><path class="a" d="M136.27,76.66a4.75,4.75,0,1,1,1.35-3.31A4.47,4.47,0,0,1,136.27,76.66ZM129,105.46V79.59H137v25.87Z"/><path class="a" d="M145.15,102.17a13.11,13.11,0,0,1-3.59-9.65,13,13,0,0,1,3.59-9.62,12.62,12.62,0,0,1,9.3-3.59,13.48,13.48,0,0,1,8,2.34,11.12,11.12,0,0,1,4.36,6.7h-8.58A3.77,3.77,0,0,0,154.61,86a4.25,4.25,0,0,0-3.75,1.79,9.61,9.61,0,0,0,0,9.41A4.08,4.08,0,0,0,154.45,99a4.46,4.46,0,0,0,2.32-.51,4.28,4.28,0,0,0,1.48-1.81h8.58a11.53,11.53,0,0,1-4.4,6.63,13.1,13.1,0,0,1-8,2.46A12.56,12.56,0,0,1,145.15,102.17Z"/><path class="a" d="M58.8,116.92v6.59H57.2v-3.72l-1.53,3.72H54.48L53,119.79v3.72H51.34v-6.59h1.84l1.9,4.54L57,116.92Z"/><path class="a" d="M68.5,116.9v1.22H66.12v1.42h2.1v1.22h-2.1v1.53H68.5v1.22h-4V116.9Z"/><path class="a" d="M78.47,116.9h1.6v6.61h-1.6l-2.69-4.16v4.16h-1.6V116.9h1.6l2.69,4.16Z"/><path class="a" d="M88,118.09a.81.81,0,0,0-.5.16.59.59,0,0,0-.19.46.67.67,0,0,0,.18.49,1.23,1.23,0,0,0,.46.28c.2.07.41.13.64.19s.47.13.7.21a3.48,3.48,0,0,1,.64.32,1.34,1.34,0,0,1,.46.53,1.74,1.74,0,0,1,.18.82,1.85,1.85,0,0,1-.68,1.43,2.62,2.62,0,0,1-1.79.6,2.82,2.82,0,0,1-1.8-.54,1.83,1.83,0,0,1-.68-1.52h1.71a.74.74,0,0,0,.81.79.77.77,0,0,0,.54-.18.63.63,0,0,0,.2-.47.62.62,0,0,0-.18-.46,1.23,1.23,0,0,0-.46-.28c-.19-.07-.41-.13-.64-.19s-.47-.14-.7-.22a4.25,4.25,0,0,1-.64-.32,1.3,1.3,0,0,1-.46-.52,1.74,1.74,0,0,1-.18-.82,1.79,1.79,0,0,1,.69-1.47,2.68,2.68,0,0,1,1.75-.55,2.85,2.85,0,0,1,1.72.48,1.83,1.83,0,0,1,.69,1.53H88.74a.9.9,0,0,0-.23-.55A.66.66,0,0,0,88,118.09Z"/><path class="a" d="M103.47,116.92h1.73l-1.84,6.59h-1.84l-1.16-4.18-1.14,4.18H97.38l-1.87-6.59h1.72l1.14,4.74,1.17-4.74h1.83l1.12,4.67Z"/><path class="a" d="M114.25,116.9v1.22h-2.38v1.42H114v1.22h-2.1v1.53h2.38v1.22h-4V116.9Z"/><path class="a" d="M124.12,123.51l-.37-1.11h-2.36l-.37,1.11h-1.71l2.29-6.61h2l2.28,6.61Zm-2.33-2.33h1.56l-.78-2.34Z"/><path class="a" d="M132.53,121v2.56h-1.6v-6.59h2.6a2.55,2.55,0,0,1,1.78.59,1.87,1.87,0,0,1,.64,1.43,2.1,2.1,0,0,1-.35,1.12,1.91,1.91,0,0,1-1.13.77l1.61,2.68H134.2L132.72,121Zm0-2.81v1.59h1a.74.74,0,0,0,.57-.22.77.77,0,0,0,.21-.57.8.8,0,0,0-.21-.57.78.78,0,0,0-.57-.23Z"/></svg>