<svg xmlns="http://www.w3.org/2000/svg" viewBox="0 0 192.26 192.26"><defs><style>.a{fill:#fff;}</style></defs><path class="a" d="M25.69,85.91V89.3c1.46-2.42,3.79-3.64,7-3.64a8.39,8.39,0,0,1,6.44,2.65,10.18,10.18,0,0,1,2.46,7.2V109h-7V96.46A4.73,4.73,0,0,0,33.36,93a4.28,4.28,0,0,0-3.25-1.22A4.25,4.25,0,0,0,26.87,93a4.73,4.73,0,0,0-1.18,3.45V109H18.61V85.91Z"/><path class="a" d="M48.53,106a13.32,13.32,0,0,1,0-17A9.78,9.78,0,0,1,56,85.66a7.84,7.84,0,0,1,6.77,3.27v-3h7.08V109H62.77v-3.36a8,8,0,0,1-6.87,3.64A9.67,9.67,0,0,1,48.53,106Zm12.71-4.3a5.62,5.62,0,0,0,1.53-4.22,5.55,5.55,0,0,0-1.53-4.2,4.93,4.93,0,0,0-7,0,5.62,5.62,0,0,0-1.53,4.22,5.55,5.55,0,0,0,1.53,4.2,4.93,4.93,0,0,0,7,0Z"/><path class="a" d="M85.45,103H88v6h-3.6a9.38,9.38,0,0,1-6-1.72c-1.43-1.15-2.14-3.11-2.14-5.9v-9.6H74.07V85.91h2.15V80.28H83.3v5.63h4.64v5.88H83.3v9.6C83.3,102.47,84,103,85.45,103Z"/><path class="a" d="M108.09,85.91h7.08V109h-7.08v-3.4q-2.19,3.65-7,3.64a8.37,8.37,0,0,1-6.44-2.65,10.14,10.14,0,0,1-2.46-7.2V85.91h7V98.45a4.78,4.78,0,0,0,1.18,3.46,4.93,4.93,0,0,0,6.49,0,4.78,4.78,0,0,0,1.18-3.46Z"/><path class="a" d="M128,85.91v4.3q2.49-4.54,6.63-4.55v7.2h-1.74A5.18,5.18,0,0,0,129.26,94c-.81.77-1.22,2.13-1.22,4.06V109H121V85.91Z"/><path class="a" d="M139.47,106a13.29,13.29,0,0,1,0-17,9.76,9.76,0,0,1,7.47-3.33,7.85,7.85,0,0,1,6.77,3.27v-3h7.07V109h-7.07v-3.36a8,8,0,0,1-6.88,3.64A9.65,9.65,0,0,1,139.47,106Zm12.7-4.3a5.62,5.62,0,0,0,1.54-4.22,5.56,5.56,0,0,0-1.54-4.2,4.92,4.92,0,0,0-3.51-1.47,4.87,4.87,0,0,0-3.52,1.49,5.62,5.62,0,0,0-1.53,4.22,5.55,5.55,0,0,0,1.53,4.2,4.91,4.91,0,0,0,7,0Z"/><path class="a" d="M166.58,109V78.38h7.08V109Z"/><path class="a" d="M26.24,113.05V120H25.1v-4.75L23,120h-.79l-2.13-4.75V120H18.92v-6.94h1.23l2.44,5.45L25,113.05Z"/><path class="a" d="M34.13,120v-6.94h1.14V120Z"/><path class="a" d="M47.74,113h1.13V120H47.74l-3.43-5.18V120H43.17V113h1.14l3.43,5.18Z"/><path class="a" d="M60.61,113v.89h-2.7V116h2.4v.88h-2.4v2.19h2.7V120H56.77V113Z"/><path class="a" d="M69.54,117.18V120H68.4v-6.94h2.4a2.58,2.58,0,0,1,1.82.58,1.92,1.92,0,0,1,.64,1.49,2.08,2.08,0,0,1-.42,1.26,2.12,2.12,0,0,1-1.31.73L73.37,120H72l-1.74-2.81Zm0-3.24v2.35H70.8a1.36,1.36,0,0,0,1-.31,1.14,1.14,0,0,0,.32-.87,1.1,1.1,0,0,0-.32-.86,1.32,1.32,0,0,0-1-.31Z"/><path class="a" d="M85.81,120l-.5-1.41H82.4L81.9,120H80.71L83.2,113h1.32L87,120Zm-3.1-2.3H85l-1.14-3.27Z"/><path class="a" d="M94.48,113.05h1.14v6.08H98V120H94.48Z"/><path class="a" d="M122.54,113.05h1.21l-2,6.94h-1.29L119,114.74,117.4,120h-1.28l-2-7h1.21l1.44,5.66,1.56-5.66h1.28l1.45,5.63Z"/><path class="a" d="M135.78,120l-.5-1.41h-2.91l-.5,1.41h-1.19l2.49-6.95h1.32L137,120Zm-3.1-2.3H135l-1.14-3.27Z"/><path class="a" d="M144.09,113.94v-.89h4.85v.89h-1.85v6H146v-6Z"/><path class="a" d="M160.33,113v.89h-2.7V116H160v.88h-2.4v2.19h2.7V120h-3.84V113Z"/><path class="a" d="M169.26,117.18V120h-1.14v-6.94h2.4a2.6,2.6,0,0,1,1.82.58,1.92,1.92,0,0,1,.64,1.49,2.08,2.08,0,0,1-.42,1.26,2.12,2.12,0,0,1-1.31.73l1.84,2.88H171.7L170,117.18Zm0-3.24v2.35h1.26a1.38,1.38,0,0,0,1-.31,1.18,1.18,0,0,0,.32-.87,1.14,1.14,0,0,0-.32-.86,1.33,1.33,0,0,0-1-.31Z"/></svg>