<svg xmlns="http://www.w3.org/2000/svg" xmlns:xlink="http://www.w3.org/1999/xlink" viewBox="0 0 192.26 192.26"><defs><style>.a{fill:url(#a);}.b{fill:url(#b);}.c{fill:url(#c);}.d{fill:url(#d);}.e{fill:url(#e);}.f{fill:url(#f);}.g{fill:url(#g);}.h{fill:url(#h);}.i{fill:url(#i);}.j{fill:url(#j);}.k{fill:#fff;}</style><radialGradient id="a" cx="93.82" cy="89.62" r="31.3" gradientUnits="userSpaceOnUse"><stop offset="0.57" stop-color="#181415"/><stop offset="0.8" stop-color="#181415"/><stop offset="1" stop-color="#181415"/></radialGradient><radialGradient id="b" cx="124.03" cy="78.41" r="0.24" xlink:href="#a"/><radialGradient id="c" cx="123.91" cy="78.28" r="0.63" xlink:href="#a"/><radialGradient id="d" cx="124.4" cy="78.63" r="1.05" xlink:href="#a"/><radialGradient id="e" cx="125.83" cy="84.56" r="0.19" xlink:href="#a"/><radialGradient id="f" cx="125.72" cy="85.31" r="0.45" xlink:href="#a"/><radialGradient id="g" cx="124.61" cy="81.3" r="1.06" xlink:href="#a"/><radialGradient id="h" cx="117.86" cy="111.33" r="0.15" xlink:href="#a"/><radialGradient id="i" cx="116.81" cy="112.3" r="0.87" xlink:href="#a"/><radialGradient id="j" cx="119.36" cy="109.38" r="1.83" xlink:href="#a"/></defs><path class="a" d="M124.83,98.89a18.84,18.84,0,0,0-1.22,2.5,3.24,3.24,0,0,0-.17.32c0-.1.09-.19.13-.29,0,.07-.06.12-.09.18l0,.12c-.53,1-1.07,2-1.54,2.72-.37.37-.6.63-1,1.06-.6.67.38-1.17.61-1.66-.53.61-1.14,1.51-1.89,2.56l-.22.27A30.8,30.8,0,0,0,122,102l.06.1c.33-.73.56-1.15.74-1.62a17.73,17.73,0,0,0,.68-1.79l0,0h0a6,6,0,0,0-.69,1.4c-.06.15-.13.31-.19.47A30.05,30.05,0,0,0,122.16,78h0a31.36,31.36,0,0,0-1.58-3.18c.68,1,1.3,2,1.88,3.06a3.21,3.21,0,0,0,.05-1.72,9.92,9.92,0,0,0-.6-1.88c-.19-.39-.41-.83-.68-1.32l-.43-.79a5.82,5.82,0,0,0-.55-.85,21.46,21.46,0,0,0-1.51-2l-.25-.35-1.16-1.4c-.21-.25-.42-.49-.63-.75s-.47-.46-.71-.7a44.72,44.72,0,0,0-5.18-3.49L109.66,62l-.47-.33-1.89-.78-.92-.4c-.45-.18-.89-.31-1.28-.44a30.18,30.18,0,0,0-22.5.32,16,16,0,0,0-2,.9,20.87,20.87,0,0,0-1.93,1l-1.84,1.18-.46.3-.42.34-.85.68A31.15,31.15,0,0,0,72,67.73c-.49.51-.91,1.08-1.35,1.61-.29.35-.56.7-.82,1.06a6.56,6.56,0,0,0-.42.6c-.31.29-.71.69-1.2,1.23a13.93,13.93,0,0,0-1.49,2.19,29.88,29.88,0,0,0-3.38,8.78l-.13.58-.08.59L63,85.52c0,.37-.09.75-.13,1.11s0,.73,0,1.08c0,.71,0,1.38,0,2a15.32,15.32,0,0,0,.24,1.71c0,.47,0,1,0,1.43s.09.94.14,1.39a14.58,14.58,0,0,0,.42,2.21,41.54,41.54,0,0,0,1.55,4.41l0,.1a28.54,28.54,0,0,0,5.31,9.16l-.22-.34.3.36c.14.19.29.37.47.57a30.23,30.23,0,0,0,4.12,4l1.31.92a13,13,0,0,0,1.34.89l1.39.81.68.41.71.34a27.9,27.9,0,0,0,5.24,2c.93.18,1.82.37,2.66.56L91,121a5.85,5.85,0,0,0,.72.07h.06l.18,0,.16,0,.48.05h.07l1.12.07c-.42,0-.78,0-1.11-.08l0-.05.68,0,1.06,0,.33,0,2.16,0a16.48,16.48,0,0,0,1.88-.13,9.7,9.7,0,0,1,1.19,0c.94-.36-.93,0-2.58.16.87-.1,1.8-.27,2.76-.42s1.91-.47,2.84-.69l.34-.08-.56.17a8.57,8.57,0,0,1-1.66.41c-.43.18-.26.19.32.1a25.57,25.57,0,0,0,5.21-1.73h0c.34-.11.64-.23.91-.31l.79-.54.37-.14-.33.09a23.7,23.7,0,0,0,5.6-3.66l.3-.36c.57-.34-.24.29-.39.5.33-.25.65-.48.92-.71l.71-.68a6.49,6.49,0,0,0,.86-1l-1.15,1-.57.51-.34.25c.1-.14.12-.2.11-.23s.26-.26.37-.39a11.53,11.53,0,0,1,1-1.07,42.18,42.18,0,0,0,3.84-3.76,1,1,0,0,1-.07.15l-.33.43c-.64.83-1.52,1.72-1.85,2.1l1.43-1.35a4.43,4.43,0,0,0,.36-.59,2.15,2.15,0,0,1,.33-.36.11.11,0,0,0,.07,0s0,0,0,0l.06-.1.15-.13v-.1l.5-.74s0,0,0,0c.22-.22.44-.44.68-.7a21.85,21.85,0,0,0,1.41-2.06.53.53,0,0,0,0-.11,22.4,22.4,0,0,0,1.45-2.59,8.68,8.68,0,0,0,.54-1.74s0-.09,0-.15a5.42,5.42,0,0,0,.21-1.07A1.82,1.82,0,0,0,124.83,98.89Zm-4.89,9.33v0l.09-.1.1-.1A2.59,2.59,0,0,0,119.94,108.22Z"/><path class="b" d="M124.15,78.72l-.2-.58,0,0c.06.18.14.38.22.63A0,0,0,0,0,124.15,78.72Z"/><path class="c" d="M123.92,78.1a3,3,0,0,1-.17-.55c-.27-.42,0,.35.32,1.33S123.47,77.41,123.92,78.1Z"/><path class="d" d="M124.09,77.82c.24.61.58,1.6.4,1.37l.42.83-1-2.79c.11.56.39,1.48.25,1.49l.42,1.19A17.74,17.74,0,0,1,124.09,77.82Z"/><path class="e" d="M125.84,84.3a1.66,1.66,0,0,0,0,.53A1.82,1.82,0,0,0,125.84,84.3Z"/><path class="f" d="M125.83,84.83c-.08.22-.37-1-.16,1.1,0-.58-.07-1.17.06-.92l.07.62C125.88,85.78,125.85,85.26,125.83,84.83Z"/><path class="g" d="M124.52,80.55c-.06-.24-.14-.47-.2-.72-.07.16.07.49.17.94a12.27,12.27,0,0,1,.29,1.57l.14.42-.27-1.47Z"/><path class="h" d="M118,111.17l-.12.07-.17.24Z"/><path class="i" d="M116.87,112.23a8,8,0,0,0-1,.89c.51-.42,1-.83,1.55-1.27l.27-.37A4.1,4.1,0,0,1,116.87,112.23Z"/><path class="j" d="M117.7,111.36l.19-.12a15.34,15.34,0,0,1,1.47-1.64c.45-.55,1-1.18,1.66-2.21-.59.7-1.15,1.42-1.69,2.13Z"/><path class="k" d="M26.37,86.67v.17a.92.92,0,0,0-.94,1v4.74c0,2.69-1.44,3.71-3.3,4l-.05-.17c1-.35,1.91-1.27,1.91-3.74V89.28c0-2.14,0-2.44-.89-2.44v-.17Z"/><path class="k" d="M40.93,94.71H38v-.18c.75,0,.4-.93.26-1.25l-.37-.92H35.06c-.16.46-.76,2.24.94,2.17v.18H33.32v-.18c.36,0,.65,0,1.7-2.66L37,86.67h.15c2.1,5,2.86,7,2.86,7,.38.91.64.85,1,.87Zm-3.1-2.52-1.42-3.56L35.1,92.19Z"/><path class="k" d="M58.42,94.53v.18H55.24v-.18c.48,0,.82-.33.82-1.18V87.16l-2.89,7.65H53l-3.2-6.92v4c0,.66.09,2.69,1.52,2.69v.18H48v-.18c1.55,0,1.65-2,1.65-2.69V87.62a1.36,1.36,0,0,0-1.28-.78v-.17h2.58l2.86,6.13,2.27-6.13h2.28v.17c-.49,0-.88.27-.88,1v5.51C57.46,94.2,57.93,94.53,58.42,94.53Z"/><path class="k" d="M69.09,86.67v.17a.83.83,0,0,0-.9,1v5.6c0,.78.42,1.13.9,1.13v.18H65.9v-.18c.49,0,.89-.35.89-1.13V87.8c0-.71-.39-1-.89-1v-.17Z"/><path class="k" d="M82.64,92.27v2.44H76.55v-.18c.48,0,.64-.5.64-1.27v-5.2c0-.71-.14-1.22-.64-1.22v-.17h5.94v2.11h-.17c-.2-1.93-2.73-1.94-3.2-1.94h-.51v3.72h.57c.16,0,1.63,0,1.72-1.16h.17v2.51H80.9c-.09-1.18-1.57-1.18-1.72-1.18h-.57v3.8h.47c.5,0,3,0,3.39-2.26Z"/><path class="k" d="M98.72,93.38a1.39,1.39,0,0,1-1.31,1.43s-1.13.1-1.59-.57l-.64-.94c-.43,1.3-2.77,2.27-3.91.69s.35-2.82,1.25-3.35l.57-.34-.6-.91c-1.07-1.49-.35-2.92.92-3.13a1.67,1.67,0,0,1,1.66.47c.45.52,1,1.87-.79,3.1L95.72,92A1.94,1.94,0,0,1,97,90.72a.92.92,0,0,1,.77.14.63.63,0,0,1,.07.92.67.67,0,0,1-.94.08.63.63,0,0,1-.22-.44c0-.24-.61-.06-.9.68l.9,1.3a1.23,1.23,0,0,0,1,.53c.4,0,.8-.13.89-.55Zm-3.66-.25L93.2,90.45l-.57.36a1.82,1.82,0,0,0-.2,2.7A1.57,1.57,0,0,0,95.06,93.13Zm-1.7-4.67.82,1.21c1.5-1,1.23-2.19.73-2.82a1.19,1.19,0,0,0-1.22-.33A1.26,1.26,0,0,0,93.36,88.46Z"/><path class="k" d="M113.83,94.71h-2.94v-.18c.76,0,.4-.93.27-1.25l-.37-.92H108c-.16.46-.76,2.24.94,2.17v.18h-2.69v-.18c.37,0,.65,0,1.7-2.66l2-5.2H110c2.1,5,2.86,7,2.86,7,.38.91.64.85,1,.87Zm-3.11-2.52-1.41-3.56L108,92.19Z"/><path class="k" d="M129.87,86.67v.17c-1.69,0-1.66,2.17-1.66,2.69v5.18h-.49l-4.92-6.27v3.38c0,.51,0,2.71,1.53,2.71v.18H121v-.18c1.68,0,1.68-2.2,1.68-2.71V88.25l-.46-.58c-.73-.91-1.06-.81-1.35-.83v-.17h2.45l4.77,6V89.53c0-.52,0-2.7-1.53-2.69v-.17Z"/><path class="k" d="M146,86.67v.17c-1.69,0-1.66,2.17-1.66,2.69v5.18h-.49l-4.92-6.27v3.38c0,.51,0,2.71,1.53,2.71v.18h-3.38v-.18c1.68,0,1.68-2.2,1.68-2.71V88.25l-.46-.58c-.73-.91-1.06-.81-1.36-.83v-.17h2.46l4.77,6V89.53c0-.52,0-2.7-1.53-2.69v-.17Z"/><path class="k" d="M156.63,86.67v.17c-.49,0-.89.25-.89,1v5.6c0,.78.41,1.13.89,1.13v.18h-3.19v-.18c.5,0,.9-.35.9-1.13V87.8c0-.71-.39-1-.9-1v-.17Z"/><path class="k" d="M170.18,92.27v2.44H164.1v-.18c.48,0,.64-.5.64-1.27v-5.2c0-.71-.14-1.22-.64-1.22v-.17H170v2.11h-.17c-.19-1.93-2.73-1.94-3.19-1.94h-.52v3.72h.57c.16,0,1.64,0,1.73-1.16h.17v2.51h-.17c-.09-1.18-1.58-1.18-1.73-1.18h-.57v3.8h.47c.5,0,3,0,3.39-2.26Z"/><path class="k" d="M75.56,134.23a2.85,2.85,0,0,1-1.64-.38v-1.23H74a1.57,1.57,0,0,0,1.54,1.51c.83,0,1-1,.23-1.55l-1-.65c-.76-.49-1.22-1.1-.71-1.83a1.48,1.48,0,0,1,1.27-.49,3.33,3.33,0,0,1,1.55.31V131h-.1a1.43,1.43,0,0,0-1.45-1.29c-.69,0-1.08.88-.19,1.46l1,.67c.85.56,1.1,1.26.69,1.87C76.86,133.7,76.57,134.23,75.56,134.23Z"/><path class="k" d="M85.32,129.67v1.21h-.1c0-1.1-1.25-1.12-1.29-1.12h-.25v3.71c0,.43.23.61.5.61v.09H82.39v-.09c.27,0,.51-.18.51-.61v-3.71h-.25c-.1,0-1.26,0-1.3,1.12h-.09v-1.21Z"/><path class="k" d="M89.81,132.62v-2.3c0-.41-.2-.56-.48-.56v-.09h1.81v.09c-.27,0-.55.09-.55.57v2.34a1.11,1.11,0,0,0,1.12,1.23,1.14,1.14,0,0,0,1.11-1.25v-1.82c0-.31,0-1.07-.82-1.07v-.09h1.8v.09c-.9,0-.89.76-.89,1.07v1.82a1.44,1.44,0,0,1-1.57,1.58A1.49,1.49,0,0,1,89.81,132.62Z"/><path class="k" d="M99.48,134.17H98v-.09c.27,0,.45-.29.45-.73v-2.87c0-.39-.17-.72-.45-.72v-.09h1.53c1.28,0,2.61.39,2.61,2.26S100.76,134.17,99.48,134.17Zm0-4.41H99.2v4.32h.28c.66,0,1.67-.09,1.67-2.15S100.15,129.76,99.48,129.76Z"/><path class="k" d="M108.23,129.67v.09a.47.47,0,0,0-.5.54v3.14c0,.44.23.64.5.64v.09h-1.78v-.09c.27,0,.5-.2.5-.64V130.3c0-.4-.22-.54-.5-.54v-.09Z"/><path class="k" d="M114.63,134.23a2.08,2.08,0,0,1-2.14-2.28,2.15,2.15,0,1,1,4.29,0A2.08,2.08,0,0,1,114.63,134.23Zm0-4.53c-.76,0-1.23.5-1.23,2.25s.47,2.18,1.23,2.18,1.22-.42,1.22-2.18S115.39,129.7,114.63,129.7Z"/></svg>