<svg xmlns="http://www.w3.org/2000/svg" xmlns:xlink="http://www.w3.org/1999/xlink" viewBox="0 0 192.26 192.26"><defs><style>.a{fill:url(#a);}.b{fill:#fff;}</style><radialGradient id="a" cx="78.9" cy="120.73" r="37.94" gradientUnits="userSpaceOnUse"><stop offset="0.57" stop-color="#181415"/><stop offset="0.8" stop-color="#181415"/><stop offset="1" stop-color="#181415"/></radialGradient></defs><rect class="a" x="25.99" y="111.86" width="105.82" height="17.74"/><path class="b" d="M28,88.12V69.47c0-3,.2-4.31-2-4.31v-.44H40v.44c-2.11,0-2,.78-2,4.31v19c0,5.78,3,8.22,7.69,8.22,5.24,0,7.88-3.62,7.88-8.22V75.74c0-4-1.27-10.58-5.92-10.58v-.44H60.47l0,.44C55,65.16,54,71.72,54,75.74V88.47c0,6.46-4.31,11.16-12.93,11.16C34.42,99.63,28,96.11,28,88.12Z"/><path class="b" d="M82.5,83.72a4.64,4.64,0,0,1-6.47.49,4.3,4.3,0,0,1-1.56-3c0-.64-1.57-.29-3.58,2.74v9.75c0,2.69.25,4.65,2,5.14v.39H60.66V98.8c1.86-.54,1.91-2.65,1.91-5.14v-12c0-1.71-.59-2.4-2.6-3.13v-.4l10.92-2.05V83c3.48-5.24,5-5.82,6.42-6.51a4.65,4.65,0,0,1,4.7.78A4.6,4.6,0,0,1,82.5,83.72Z"/><path class="b" d="M112.56,87.49c0,9.69-6.46,12.14-12.73,12.14-3.87,0-6.17-.93-7.49-2.15-1.57,1-6.81,2.25-6.81,1.47V68.24c0-1.66-.49-2.4-2.5-3.13v-.39l10.78-2.06V79.85c1.42-2.45,3.86-3.72,8.42-3.72C109,76.13,112.56,81.42,112.56,87.49Zm-9.84.68c0-5.73-1.37-10.57-4.9-10.57-3.28,0-4,4-4,7.78v5.19c0,5.58,1.12,8.62,4.06,8.62C100.61,99.19,102.72,96,102.72,88.17Z"/><path class="b" d="M139.68,96.06c-.68,2.15-3.23,3.57-6.31,3.57,0,0-5.44,0-5.88-4.41-.63,2.55-3.13,4.41-6.61,4.41-1.86,0-6.12-.83-6.12-5,0-4.9,4-5.83,12.68-7.89V83.62c0-5.09-2.89-7.83-6.26-6.07,0,0-1.08.63.58,1.22a3.19,3.19,0,0,1,1.77,1.86,3.47,3.47,0,1,1-6.42,2.65,3.55,3.55,0,0,1,.59-3.63A11.84,11.84,0,0,1,121,77.16a9.59,9.59,0,0,1,4.6-1c6.42,0,10,4,10,9.79v7.3s0,3.52,2.35,3.42c0,0,1.23,0,1.47-.83Zm-12.24-8.82c-4,.88-4,3.87-4,6.17,0,0,0,3.23,1.91,3.23.83,0,1.51-.68,2-1.86Z"/><path class="b" d="M166.27,98.8v.39H154V98.8c1.86-.54,2-2.69,2-5.19V83.77c0-2.79-1-4.12-3.38-4.12a3.92,3.92,0,0,0-2.89,1.91v12.1c0,2.69.24,4.65,2,5.14v.39H139.49V98.8c1.86-.54,1.91-2.6,1.91-5.14v-12c0-1.71-.54-2.4-2.55-3.13v-.4l10.87-2.05v4.75c1.27-2.6,3.87-4.75,6.51-4.75,3.92,0,8,1.56,8,7.44v10C164.26,96.3,164.56,98.36,166.27,98.8Z"/><path class="b" d="M66.62,117v1.43H63.83v1.66h2.46v1.43H63.83v1.79h2.79v1.43H62V117Z"/><path class="b" d="M78.18,124.73l-.43-1.3H75l-.43,1.3h-2L75.23,117h2.29l2.67,7.74ZM75.45,122h1.83l-.91-2.74Z"/><path class="b" d="M85.62,118.44V117h6.1v1.43H89.61v6.29H87.72v-6.29Z"/><path class="b" d="M102.55,117v1.43h-2.8v1.66h2.47v1.43H99.75v1.79h2.8v1.43H97.87V117Z"/><path class="b" d="M111.08,121.73v3H109.2V117h3a2.94,2.94,0,0,1,2.09.7,2.2,2.2,0,0,1,.74,1.67,2.38,2.38,0,0,1-.4,1.3,2.27,2.27,0,0,1-1.33.91l1.89,3.14H113l-1.74-3Zm0-3.29v1.86h1.17a.88.88,0,0,0,.67-.25.9.9,0,0,0,.25-.67.91.91,0,0,0-.25-.67.89.89,0,0,0-.67-.27Z"/><path class="b" d="M125.47,124.73h-1.88v-2.48L120.92,117h2.13l1.49,3.49L126,117h2.14l-2.68,5.24Z"/></svg>