<svg xmlns="http://www.w3.org/2000/svg" viewBox="0 0 192.26 192.26"><defs><style>.a{fill:#f7f7f7;}.b{fill:none;stroke:#f7f7f7;stroke-miterlimit:10;}</style></defs><path class="a" d="M87.15,128.65v.25c-1.24,0-3.13,1-5.4,6.41l-5.42,15.16H75.21c-2.88-6.73-4.74-11.06-6-13.89l-5,13.89H63.16C55.35,132.21,55,131.41,55,131.41c-1.06-2.48-1.49-2.45-2.3-2.51v-.25h9.67v.25c-2,0-.4,3.59-.4,3.59l4.68,10.63,2.48-6.91c-1.89-4.4-2.08-4.8-2.08-4.8-1-2.48-1.49-2.45-2.29-2.51v-.25h9.67v.25c-2,0-.41,3.59-.41,3.59l4.65,10.67,2.79-7.85c.78-2.2.09-6.41-3.07-6.41v-.25Z"/><path class="a" d="M104.87,150.22v.25H97.12v-.25c1.18-.34,1.24-1.7,1.24-3.28v-6.2c0-1.77-.65-2.64-2.14-2.61a2.49,2.49,0,0,0-1.92,1.34V147c0,1.7.16,2.94,1.27,3.25v.25H87.83v-.25C89,149.88,89,148.55,89,147V130.88c0-1.08-.38-1.52-1.65-2v-.25l6.91-1.3V139a5,5,0,0,1,4.22-3.16c2.48,0,5.08,1,5.08,4.74v6.33C103.6,148.64,103.79,149.94,104.87,150.22Z"/><path class="a" d="M114.38,150.22v.25h-7.74v-.25c1.18-.34,1.21-1.67,1.21-3.25v-7.56c0-1.09-.35-1.52-1.62-2v-.25l6.88-1.3V147C113.11,148.67,113.27,149.91,114.38,150.22Zm-7.18-18.1a3,3,0,0,1,5.91,0,3,3,0,0,1-5.91,0Z"/><path class="a" d="M127.34,147.56l.18.12a4.43,4.43,0,0,1-4.46,3.07c-2.45,0-5.24-1-5.24-4.74v-9.58h-1.95v-.28h1.95V132l5.21-.65v4.8h4v.28h-4v9.48c0,1.74.62,2.58,2.42,2.58A2.48,2.48,0,0,0,127.34,147.56Z"/><path class="a" d="M143.27,143h-8.43c0,4.71,1.49,5.95,3.56,6.41,1.55.35,3.63-.58,4.25-3.22l.28.06c-.41,2.3-2.67,4.5-6.54,4.5a7.32,7.32,0,0,1-7.35-7.41c0-5.27,4-7.47,7.81-7.47C140.14,135.87,143.27,137.17,143.27,143Zm-4.5-.28c0-3.9-.4-6.57-1.79-6.57s-2.14,3.6-2.14,6.57Z"/><path class="a" d="M75,161.15v-4.23h1v4.23Z"/><path class="a" d="M82.72,156.9h1v4.25h-1L81,158.48v2.67H80V156.9h1l1.73,2.68Z"/><path class="a" d="M87.39,157.7v-.78h3.34v.78H89.57v3.45h-1V157.7Z"/><path class="a" d="M96.93,156.9v.79H95.4v.91h1.35v.79H95.4v1h1.53v.78H94.37V156.9Z"/><path class="a" d="M101.87,159.51v1.64h-1v-4.23h1.67a1.61,1.61,0,0,1,1.15.38,1.21,1.21,0,0,1,.41.91,1.38,1.38,0,0,1-.22.72,1.24,1.24,0,0,1-.73.5l1,1.72H103l-1-1.64Zm0-1.81v1h.64a.5.5,0,0,0,.37-.14.49.49,0,0,0,.14-.36.51.51,0,0,0-.14-.37.48.48,0,0,0-.37-.15Z"/><path class="a" d="M107.89,161.15v-4.23h1v4.23Z"/><path class="a" d="M113.23,160.58a2.23,2.23,0,0,1,0-3.11,2.13,2.13,0,0,1,1.55-.61,2.1,2.1,0,0,1,2.16,2.16,2.09,2.09,0,0,1-.63,1.56,2.22,2.22,0,0,1-3.08,0Zm2.36-.67a1.28,1.28,0,0,0,.3-.89,1.25,1.25,0,0,0-.3-.88,1.05,1.05,0,0,0-.82-.34,1,1,0,0,0-.81.34,1.21,1.21,0,0,0-.31.88,1.24,1.24,0,0,0,.31.89,1,1,0,0,0,.81.33A1.08,1.08,0,0,0,115.59,159.91Z"/><path class="a" d="M121.66,159.51v1.64h-1v-4.23h1.68a1.57,1.57,0,0,1,1.14.38,1.18,1.18,0,0,1,.41.91,1.29,1.29,0,0,1-.22.72,1.21,1.21,0,0,1-.73.5l1,1.72h-1.21l-1-1.64Zm0-1.81v1h.64a.51.51,0,0,0,.37-.14.48.48,0,0,0,.13-.36.48.48,0,0,0-.14-.37.46.46,0,0,0-.36-.15Z"/><path class="a" d="M82.15,164.92a.47.47,0,0,0-.32.1.37.37,0,0,0-.12.29.43.43,0,0,0,.11.31.91.91,0,0,0,.3.19l.41.12a3.88,3.88,0,0,1,.45.14,1.74,1.74,0,0,1,.41.2.91.91,0,0,1,.3.34,1.22,1.22,0,0,1,.11.53,1.16,1.16,0,0,1-.44.92,1.7,1.7,0,0,1-1.15.38,1.79,1.79,0,0,1-1.15-.34,1.19,1.19,0,0,1-.44-1h1.1c0,.34.2.51.52.51a.5.5,0,0,0,.35-.12.41.41,0,0,0,.12-.3.4.4,0,0,0-.11-.3,1.09,1.09,0,0,0-.3-.18l-.41-.12-.45-.14a3.91,3.91,0,0,1-.41-.2,1,1,0,0,1-.3-.34,1.21,1.21,0,0,1-.11-.52,1.15,1.15,0,0,1,.44-.95,1.72,1.72,0,0,1,1.13-.36,1.79,1.79,0,0,1,1.1.31,1.2,1.2,0,0,1,.45,1H82.61a.5.5,0,0,0-.15-.35A.41.41,0,0,0,82.15,164.92Z"/><path class="a" d="M87.35,165v-.79h3.34V165H89.53v3.45h-1V165Z"/><path class="a" d="M94.31,166.69v-2.53h1v2.53a.84.84,0,0,0,.19.59.71.71,0,0,0,.55.2.74.74,0,0,0,.55-.2.84.84,0,0,0,.19-.59v-2.53h1v2.53a1.7,1.7,0,0,1-.27,1,1.5,1.5,0,0,1-.66.59,2,2,0,0,1-.87.19,1.79,1.79,0,0,1-1.25-.46A1.66,1.66,0,0,1,94.31,166.69Z"/><path class="a" d="M103.25,164.16a2.39,2.39,0,0,1,1.66.59,2,2,0,0,1,.66,1.53,2,2,0,0,1-.66,1.53,2.39,2.39,0,0,1-1.66.59h-1.49v-4.24Zm-.46,3.45h.46a1.23,1.23,0,0,0,.93-.36,1.55,1.55,0,0,0,0-1.94,1.23,1.23,0,0,0-.93-.36h-.46Z"/><path class="a" d="M109.24,168.4v-4.24h1v4.24Z"/><path class="a" d="M114.58,167.83a2.25,2.25,0,1,1,1.54.61A2.1,2.1,0,0,1,114.58,167.83Zm2.35-.67a1.3,1.3,0,0,0,.31-.89,1.28,1.28,0,0,0-.31-.89,1,1,0,0,0-.81-.33,1.06,1.06,0,0,0-.82.33,1.28,1.28,0,0,0-.3.89,1.3,1.3,0,0,0,.3.89,1.06,1.06,0,0,0,.82.33A1,1,0,0,0,116.93,167.16Z"/><rect class="b" x="37.05" y="9.85" width="118.15" height="172.55"/></svg>