<svg xmlns="http://www.w3.org/2000/svg" viewBox="0 0 192.26 192.26"><defs><style>.a{fill:#fff;}.b{fill:#77797a;}</style></defs><path class="a" d="M50.3,63.74l-.93-.26-1.09,1.63.59.76-.79,1.18-3.49-4.63.9-1.34,5.6,1.48Zm-2.68.53.72-1.07-2-.55Z"/><path class="a" d="M52,53.09l.91-1,4,3.75-.91,1-4-.74,2.52,2.36-.91,1-4-3.74.91-1,4,.73Z"/><path class="a" d="M57.27,49.59l-.62-.8L60,46.14l.63.8-1.18.92,2.74,3.5-1,.82-2.74-3.5Z"/><path class="a" d="M67.2,41.69,68.37,41,71,45.81l-1.16.65-1.1-2-1.84,1,1.1,2-1.16.64L64.2,43.36l1.16-.64,1.07,1.91,1.84-1Z"/><path class="a" d="M75.35,43.09a2.7,2.7,0,0,1-1.44-1.62,2.65,2.65,0,0,1,.1-2.16,2.71,2.71,0,0,1,1.61-1.41,2.76,2.76,0,0,1,2.13.08,2.9,2.9,0,0,1,1.34,3.78,2.89,2.89,0,0,1-3.74,1.33Zm2.57-1.83a1.63,1.63,0,0,0,0-1.21,1.59,1.59,0,0,0-.76-.94A1.38,1.38,0,0,0,76,39.05a1.4,1.4,0,0,0-.85.76,1.63,1.63,0,0,0,0,1.21,1.61,1.61,0,0,0,.75.94,1.49,1.49,0,0,0,2-.7Z"/><path class="a" d="M86.71,35.16,88,34.94,89,40.33l-1.31.23-2.78-3,.58,3.4-1.31.22-.93-5.39,1.31-.23,2.78,3Z"/><path class="a" d="M96.22,39.92l-1.33,0,0-1.76-2-3.67,1.51,0,1.09,2.44,1-2.48,1.51,0-1.83,3.73Z"/><path class="a" d="M110.71,37.2a.62.62,0,0,0-.43,0,.48.48,0,0,0-.25.33.54.54,0,0,0,0,.42,1,1,0,0,0,.32.32c.14.09.3.19.47.28l.52.31a2.82,2.82,0,0,1,.45.38,1.13,1.13,0,0,1,.27.52,1.52,1.52,0,0,1,0,.7,1.51,1.51,0,0,1-.84,1,2.2,2.2,0,0,1-1.56.13,2.38,2.38,0,0,1-1.33-.79,1.5,1.5,0,0,1-.25-1.36l1.38.34a.61.61,0,0,0,.49.79.62.62,0,0,0,.47,0,.52.52,0,0,0,.26-.34.5.5,0,0,0-.06-.4.94.94,0,0,0-.31-.32,5.06,5.06,0,0,0-.48-.29c-.17-.09-.35-.2-.52-.31a3.35,3.35,0,0,1-.44-.38,1.13,1.13,0,0,1-.27-.52,1.36,1.36,0,0,1,0-.69,1.46,1.46,0,0,1,.84-1,2.22,2.22,0,0,1,1.52-.1,2.39,2.39,0,0,1,1.29.73,1.54,1.54,0,0,1,.25,1.37l-1.41-.35a.77.77,0,0,0-.07-.49A.56.56,0,0,0,110.71,37.2Z"/><path class="a" d="M117.21,39.2l.38-.94,4,1.64-.39.94-1.38-.57-1.7,4.11-1.23-.5,1.7-4.12Z"/><path class="a" d="M124.33,44.93,126,42.14l1.14.69-1.69,2.79a1,1,0,0,0-.18.77.88.88,0,0,0,.47.59.9.9,0,0,0,.74.14,1,1,0,0,0,.61-.51l1.69-2.79,1.13.69-1.68,2.79a2.28,2.28,0,0,1-.94.89,2.06,2.06,0,0,1-1.13.21A2.53,2.53,0,0,1,125.1,48,2.31,2.31,0,0,1,124,46.69,2.12,2.12,0,0,1,124.33,44.93Z"/><path class="a" d="M135.74,48.89a3,3,0,0,1,1.14,2,2.72,2.72,0,0,1-2.55,3,3.1,3.1,0,0,1-2.13-.81l-1.46-1.25,3.54-4.15Zm-3.33,3,.45.39a1.54,1.54,0,0,0,1.21.42,1.74,1.74,0,0,0,1.14-.67,1.82,1.82,0,0,0,.49-1.24,1.59,1.59,0,0,0-.61-1.13l-.45-.38Z"/><path class="a" d="M137.39,58l4.06-3.65.89,1L138.28,59Z"/><path class="a" d="M142.08,62.5a2.65,2.65,0,0,1,1.2-1.8,2.71,2.71,0,0,1,2.12-.45,2.89,2.89,0,0,1,2.23,3.29,2.91,2.91,0,0,1-3.33,2.25,2.87,2.87,0,0,1-2.22-3.29Zm2.41,2a1.88,1.88,0,0,0,1.9-1.29,1.51,1.51,0,0,0-1.18-1.74,1.88,1.88,0,0,0-1.9,1.29,1.51,1.51,0,0,0,1.18,1.74Z"/><path class="a" d="M63.21,142.92a.67.67,0,0,0-.41-.12.44.44,0,0,0-.35.22.49.49,0,0,0-.11.41.88.88,0,0,0,.18.41c.1.14.21.28.34.43s.26.32.37.48a2.39,2.39,0,0,1,.28.52,1.11,1.11,0,0,1,.07.58,1.57,1.57,0,0,1-1.41,1.29,2.2,2.2,0,0,1-1.5-.45,2.34,2.34,0,0,1-1-1.21,1.52,1.52,0,0,1,.26-1.36l1.16.81a.61.61,0,0,0,.18.92.63.63,0,0,0,.45.14.51.51,0,0,0,.36-.23.52.52,0,0,0,.1-.39A1,1,0,0,0,62,145a4,4,0,0,0-.34-.44c-.13-.15-.25-.31-.37-.48a2.92,2.92,0,0,1-.28-.52A1.07,1.07,0,0,1,61,143a1.4,1.4,0,0,1,.26-.64,1.49,1.49,0,0,1,1.17-.67,2.23,2.23,0,0,1,1.45.45,2.4,2.4,0,0,1,.94,1.15,1.52,1.52,0,0,1-.26,1.36l-1.19-.83a.74.74,0,0,0,.11-.48A.6.6,0,0,0,63.21,142.92Z"/><path class="a" d="M66.75,150.4l2.55-4.83,1.17.62L67.93,151Z"/><path class="a" d="M77.86,149.32l1.25.45-1.88,5.15L76,154.46l-.9-4L73.9,153.7l-1.25-.46,1.87-5.14,1.25.46.91,4Z"/><path class="a" d="M83,155.68a2.88,2.88,0,0,1,.74-3.94,2.76,2.76,0,0,1,2.1-.41,2.85,2.85,0,0,1,1.5.77,2.56,2.56,0,0,1,.72,1.5l-1.56-.29a1.06,1.06,0,0,0-.87-.78,1.36,1.36,0,0,0-1.13.23A1.86,1.86,0,0,0,84,155a1.4,1.4,0,0,0,1,.62,1,1,0,0,0,1.09-.4l1.56.29a2.48,2.48,0,0,1-1.22,1.13,2.79,2.79,0,0,1-1.67.18A2.74,2.74,0,0,1,83,155.68Z"/><path class="a" d="M95.78,152.36l0,1-2-.07,0,1.18,1.74.06,0,1-1.75-.06,0,1.27,2,.07,0,1-3.31-.12.2-5.47Z"/><path class="a" d="M106.67,156.88l-.2-1,.48-.62c.2-.26.36-.47.48-.61l.39-.55a3.72,3.72,0,0,0,.31-.55,1.61,1.61,0,0,0,.19-.93c-.09-.43-.33-.61-.71-.53a.52.52,0,0,0-.39.28.87.87,0,0,0,0,.59l-1.26.26a1.79,1.79,0,0,1,.25-1.49,2,2,0,0,1,1.3-.75,1.79,1.79,0,0,1,1.44.22,1.63,1.63,0,0,1,.72,1.08,1.85,1.85,0,0,1,0,1c-.06.17-.11.32-.16.44a2.29,2.29,0,0,1-.24.46c-.12.19-.21.33-.27.41s-.16.24-.32.45l-.29.41,2-.41.22,1.06Z"/><path class="a" d="M114.26,149.44a2.45,2.45,0,0,1,.89-.55,2.31,2.31,0,0,1,1-.14,1.56,1.56,0,0,1,.84.33,2.75,2.75,0,0,1,.64.71,4.52,4.52,0,0,1,.49,1,5,5,0,0,1,.27,1.09,2.73,2.73,0,0,1-.05,1,1.63,1.63,0,0,1-.44.8,2.36,2.36,0,0,1-.89.54,2.41,2.41,0,0,1-1,.15,1.72,1.72,0,0,1-.85-.34,2.89,2.89,0,0,1-.64-.7,5.38,5.38,0,0,1-.48-1,5,5,0,0,1-.27-1.09,3,3,0,0,1,0-1A1.68,1.68,0,0,1,114.26,149.44ZM116,150a.8.8,0,0,0-.4,0,.87.87,0,0,0-.34.22.7.7,0,0,0-.17.3,1.09,1.09,0,0,0,0,.37,2.61,2.61,0,0,0,.08.42,3,3,0,0,0,.15.46c.06.18.12.33.17.45a3.47,3.47,0,0,0,.21.37,1,1,0,0,0,.25.28.7.7,0,0,0,.32.13.94.94,0,0,0,.4-.05.84.84,0,0,0,.34-.22.67.67,0,0,0,.17-.29,1.17,1.17,0,0,0,0-.38,2.63,2.63,0,0,0-.07-.42c0-.13-.09-.29-.15-.46a3.49,3.49,0,0,0-.18-.45,1.74,1.74,0,0,0-.21-.37.87.87,0,0,0-.25-.28A.61.61,0,0,0,116,150Z"/><path class="a" d="M124.15,151.14l-2-3.8-.83.43-.57-1.1,2.06-1.07,2.54,4.91Z"/><path class="a" d="M127.52,144.27a1.38,1.38,0,0,1-.21-1.19,2.06,2.06,0,0,1,.93-1.21,2.11,2.11,0,0,1,1.45-.46,1.5,1.5,0,0,1,1.05.61,1.31,1.31,0,0,1,.1,1.41,1.46,1.46,0,0,1,1.52.66,1.6,1.6,0,0,1,.25,1.41,2.55,2.55,0,0,1-2.46,1.72,1.62,1.62,0,0,1-1.24-.72,1.47,1.47,0,0,1-.1-1.65A1.29,1.29,0,0,1,127.52,144.27Zm2.27-1.35a.62.62,0,0,0-.43-.29.64.64,0,0,0-.49.12.7.7,0,0,0-.3.43.65.65,0,0,0,.12.51.67.67,0,0,0,.44.29.7.7,0,0,0,.5-.13.65.65,0,0,0,.28-.42A.68.68,0,0,0,129.79,142.92Zm1.42,1.87a.74.74,0,0,0-.47-.33.73.73,0,0,0-.59.16.82.82,0,0,0-.36.5.69.69,0,0,0,.13.58.78.78,0,0,0,.5.34.85.85,0,0,0,.61-.16.75.75,0,0,0,.34-.52A.83.83,0,0,0,131.21,144.79Z"/><path class="b" d="M129.73,68.08c-.32-.53-.63-1.08-1-1.6a17,17,0,0,1-3-2.42,29.05,29.05,0,0,0-2.94-2.49c.59,0-.41-1.08-1.37-2l.2.53a34.47,34.47,0,0,0-6.35-4.66,47.86,47.86,0,0,0-7-3.25,4,4,0,0,1-1.25-.73c-.74-.19-1.49-.37-2.25-.5l-1.13-.22-1.13-.14c.24-.22-.65-.51-1.34-.74s-1.18-.33,0-.33c-1.79,0-3.53-.1-5.28-.09a20.4,20.4,0,0,0-2.6.12,12,12,0,0,0-2.53.47,36.7,36.7,0,0,0-17,6.14A41.58,41.58,0,0,0,61.72,68.7l.33-.12C60,71.94,59.17,75.23,57,79.26c-.32,1.49-.69,3.25-.9,4.84a44.75,44.75,0,0,0-2.35,14.15,41.24,41.24,0,0,0,1.45,10.55c-.38.3-.42-1.38-.93-1.51a3.64,3.64,0,0,0,.34,2.25l0-.18a7.29,7.29,0,0,1,.77,2.82c-.29-.09-.34.29-.58-.19l.3,1c.12.09.24.19.19-.1a1.77,1.77,0,0,1,.4,1.24,10.15,10.15,0,0,0,1.48,2.26,21.35,21.35,0,0,1,1.57,1.94A2.27,2.27,0,0,1,59,119c-.38-.51-.94-1.25-1.45-2-1-1.31-1.73-2.61-1.52-2.19a5.36,5.36,0,0,0,.69,1.38c.43.68,1.06,1.49,1.65,2.31s1.28,1.57,1.74,2.19.83,1,.79,1.19c.32.42.73.91.87.66.43.78-.58.07-.39.71.05,0,.08-.11.2,0l.12.67c1.16.87,2.14,2.73,3.59,3.43a4.91,4.91,0,0,1-2.07-.71v-.2c-.15,0-.76-.58-.94-.41A5.49,5.49,0,0,0,64.22,128a4,4,0,0,1,.22.5s0-.05.07-.08c.11.33.07.32-.09.31h-.09c-.06.45.67,1,1.59,1.61a12.32,12.32,0,0,1,2.55,1.83c.48.22.13-.06.73.19A18.45,18.45,0,0,0,70.92,134a19,19,0,0,0,2,1.51c.71,0,.82-.07.37-.67l1.18.73c-.79.06-.31.53.16,1s1,.88.11,1a4.39,4.39,0,0,0,1.91.93c.18-.17.43-.37,1.4,0,1.23.73,1,.53,2,1.16.16.35-.29.3-.33.52,1.92.2,1.36,1,3.12,1.42,1.13.15,3.32.59,3.49.1,1.48.23,1.42.57,1.19.92l1.23.22a39.08,39.08,0,0,1-11.87-3.2,32.21,32.21,0,0,0,13.43,4.67c4.84.5,9.65-.42,12.86-2.73.51.83,3.07,1,5.55.59s4.77-1.23,4.77-1.46c.86-.49,1.67-1.09,2.5-1.64.4-.28.83-.53,1.23-.83l1.19-.9A60.85,60.85,0,0,0,131.55,124a51.83,51.83,0,0,0,8.33-17,38.25,38.25,0,0,0,1.19-7.11,47,47,0,0,0-.19-9.36,59.4,59.4,0,0,0-4.31-15.8c-.38-1-.81-1.88-1.28-2.81.69,1.58.68,1.58,1.3,3.19a65.05,65.05,0,0,0-7.51-9.38A9.8,9.8,0,0,0,129.73,68.08ZM55.32,109.24c.06.18.12.37.17.55a.42.42,0,0,1-.54-.05C54.74,108.89,55.12,109.19,55.32,109.24Z"/><path class="a" d="M95.73,68.81h.36c18.4,42.17,19.64,44.57,19.64,44.57,2.62,5.82,5.09,5.89,6.54,6V120H96.82v-.58c5.82,0,1.45-8.51,1.45-8.51l-2.32-5H81.69c-1.45,3.35-.14,13.53,8.58,13.53V120H69.33v-.58c2.18-.15,6.11-.73,11.71-13.53ZM88.38,88.88l-6.47,16.36H95.66Z"/></svg>