<svg xmlns="http://www.w3.org/2000/svg" viewBox="0 0 69.76 69.78"><defs><style>.a{fill:#878787;}</style></defs><path class="a" d="M39.8,34.89A4.92,4.92,0,1,1,34.88,30,4.92,4.92,0,0,1,39.8,34.89Z"/><path class="a" d="M46.38,26.19a4.66,4.66,0,0,0-1.1-1.7,4.54,4.54,0,0,0-1.7-1.1,7.81,7.81,0,0,0-2.74-.51c-1.55-.07-2-.09-6-.09s-4.41,0-6,.09a7.81,7.81,0,0,0-2.74.51,4.83,4.83,0,0,0-2.8,2.8,7.81,7.81,0,0,0-.51,2.74c-.07,1.55-.09,2-.09,6s0,4.41.09,6a7.81,7.81,0,0,0,.51,2.74,4.54,4.54,0,0,0,1.1,1.7,4.66,4.66,0,0,0,1.7,1.1,8.31,8.31,0,0,0,2.74.51c1.55.07,2,.09,6,.09s4.41,0,6-.09a8.31,8.31,0,0,0,2.74-.51,4.89,4.89,0,0,0,2.8-2.8,8.31,8.31,0,0,0,.51-2.74c.07-1.55.09-2,.09-6s0-4.41-.09-6A8.31,8.31,0,0,0,46.38,26.19ZM34.88,42.47a7.58,7.58,0,1,1,7.58-7.58A7.58,7.58,0,0,1,34.88,42.47Zm7.87-13.69A1.77,1.77,0,1,1,44.53,27,1.77,1.77,0,0,1,42.75,28.78Z"/><path class="a" d="M34.88,9.19a25.7,25.7,0,1,0,25.69,25.7A25.7,25.7,0,0,0,34.88,9.19ZM49.54,41a10.93,10.93,0,0,1-.68,3.58,7.53,7.53,0,0,1-4.32,4.32,10.87,10.87,0,0,1-3.58.68c-1.57.08-2.07.09-6.08.09s-4.51,0-6.08-.09a11,11,0,0,1-3.59-.68,7.52,7.52,0,0,1-4.31-4.32A10.59,10.59,0,0,1,20.21,41c-.07-1.57-.09-2.07-.09-6.08s0-4.51.09-6.08a10.66,10.66,0,0,1,.69-3.59,7.54,7.54,0,0,1,4.31-4.31,10.66,10.66,0,0,1,3.59-.69c1.57-.07,2.07-.09,6.08-.09s4.51,0,6.08.09a10.59,10.59,0,0,1,3.58.69,7.52,7.52,0,0,1,4.32,4.31,11.18,11.18,0,0,1,.69,3.59c.07,1.57.08,2.07.08,6.08S49.62,39.4,49.54,41Z"/></svg>