<svg xmlns="http://www.w3.org/2000/svg" viewBox="0 0 53.86 53.86"><defs><style>.a{fill:#878787;}</style></defs><path class="a" d="M31.85,26.93a4.92,4.92,0,1,1-5-4.89h0A4.92,4.92,0,0,1,31.85,26.93Z"/><path class="a" d="M38.43,18.23a4.66,4.66,0,0,0-1.1-1.7,4.54,4.54,0,0,0-1.7-1.1,7.78,7.78,0,0,0-2.74-.51c-1.55-.07-2-.09-6-.09s-4.41,0-6,.09a7.74,7.74,0,0,0-2.74.51,4.83,4.83,0,0,0-2.8,2.8A7.74,7.74,0,0,0,14.84,21c-.07,1.55-.09,2-.09,6s0,4.41.09,6a7.78,7.78,0,0,0,.51,2.74,4.54,4.54,0,0,0,1.1,1.7,4.66,4.66,0,0,0,1.7,1.1,8.52,8.52,0,0,0,2.74.51c1.55.07,2,.09,6,.09s4.41,0,6-.09a8.57,8.57,0,0,0,2.74-.51,4.89,4.89,0,0,0,2.8-2.8A8.57,8.57,0,0,0,38.94,33c.07-1.55.09-2,.09-6s0-4.41-.09-6A8.52,8.52,0,0,0,38.43,18.23ZM26.93,34.51a7.58,7.58,0,1,1,7.58-7.58,7.58,7.58,0,0,1-7.58,7.58ZM34.8,20.82A1.77,1.77,0,1,1,36.58,19a1.77,1.77,0,0,1-1.78,1.78Z"/><path class="a" d="M26.94,1.23A25.7,25.7,0,1,0,52.63,26.94h0A25.7,25.7,0,0,0,26.94,1.23ZM41.6,33a11.25,11.25,0,0,1-.68,3.58,7.59,7.59,0,0,1-4.32,4.32,10.72,10.72,0,0,1-3.58.68c-1.57.08-2.07.09-6.08.09s-4.51,0-6.08-.09a11.25,11.25,0,0,1-3.59-.68A7.55,7.55,0,0,1,13,36.62,10.49,10.49,0,0,1,12.27,33c-.07-1.57-.09-2.07-.09-6.08s0-4.51.09-6.08A10.5,10.5,0,0,1,13,17.29,7.56,7.56,0,0,1,17.27,13a10.5,10.5,0,0,1,3.59-.69c1.57-.07,2.07-.09,6.08-.09s4.51,0,6.08.09A10.49,10.49,0,0,1,36.6,13a7.55,7.55,0,0,1,4.32,4.31,11.26,11.26,0,0,1,.69,3.59c.07,1.57.08,2.07.08,6.08S41.68,31.44,41.6,33Z"/></svg>