<svg xmlns="http://www.w3.org/2000/svg" viewBox="0 0 53.86 53.86"><defs><style>.a{fill:#878787;}</style></defs><path class="a" d="M26.94,1.23A25.7,25.7,0,1,0,52.63,26.94h0A25.7,25.7,0,0,0,26.94,1.23ZM19.47,40H13.21V21.25h6.26Zm-3.13-21.4h0a3.26,3.26,0,0,1-.27-6.52h.35A3.27,3.27,0,1,1,17,18.64a3.21,3.21,0,0,1-.62,0ZM42.06,40H35.78V30c0-2.54-.91-4.26-3.17-4.26A3.4,3.4,0,0,0,29.4,28a4.12,4.12,0,0,0-.21,1.52V40H22.94s.12-17,0-18.79h6.25v2.67a6.19,6.19,0,0,1,5.64-3.11C39,20.81,42,23.5,42,29.28Z"/></svg>