<svg xmlns="http://www.w3.org/2000/svg" viewBox="0 0 397 259"><defs><style>.a{fill:#baa243;}</style></defs><path d="M83.44,117.46q0,6-2,8.37t-6,2.34a6.67,6.67,0,0,1,3.52.92,8.08,8.08,0,0,1,2.51,2.43,11.1,11.1,0,0,1,1.5,3.43,15.24,15.24,0,0,1,.5,3.93v64.26H72.73V136.2a4.62,4.62,0,0,0-.92-3.09,5.19,5.19,0,0,0-2.42-1.59,12.58,12.58,0,0,0-3.43-.59c-1.29-.05-2.6-.08-3.94-.08v72.29H51.32V58.56H62q4,0,7.87.21a20.88,20.88,0,0,1,6.86,1.46,10.72,10.72,0,0,1,4.85,4q1.84,2.72,1.84,7.74ZM72.73,72a7.16,7.16,0,0,0-.54-3.1,3.3,3.3,0,0,0-1.8-1.59,10.19,10.19,0,0,0-3.3-.58Q65,66.59,62,66.59v58.9c1.34,0,2.65,0,3.94-.08a12.21,12.21,0,0,0,3.43-.59,5.26,5.26,0,0,0,2.42-1.58,4.64,4.64,0,0,0,.92-3.1Z"/><path d="M131.1,66.59H117.71v56.23h10.71v8H117.71v64.26H131.1v8H107V58.56h24.1Z"/><path d="M176.08,66.59H162.69v53.55H173.4v8H162.69v75H152V58.56h24.1Z"/><path d="M250.37,58.56V203.14H229v-8h10.71V58.56Z"/><path class="a" d="M199.68,232.32V26.57h10.71V232.43"/><path d="M273.93,58.56H298V203.14h-24.1v-8h13.39V130.85H276.61v-8h10.71V66.59H273.93Z"/><path d="M334.54,58.56h11.14l-8,72.29,8,72.29h-9.17l-2.57-37.62-1.47-21.45-1.84,21.48L327,203.14H316.24l8-72.29-8-72.29H327l1.55,37.61,1.28,21.41,1.65-21.46Z"/></svg>